SplineFontDB: 3.2
FontName: KalimbaNotationE
FullName: KalimbaNotationE
FamilyName: KalimbaNotationE
Weight: Regular
Copyright: Copyright (c) 2022, Yuichiro Nakata
UComments: "2022-5-12: Created with FontForge (http://fontforge.org)"
Version: 001.000
ItalicAngle: 0
UnderlinePosition: -102
UnderlineWidth: 51
Ascent: 819
Descent: 205
InvalidEm: 0
LayerCount: 2
Layer: 0 0 "+gMyXYgAA" 1
Layer: 1 0 "+Uk2XYgAA" 0
XUID: [1021 882 799115803 17396]
OS2Version: 0
OS2_WeightWidthSlopeOnly: 0
OS2_UseTypoMetrics: 1
CreationTime: 1652340148
ModificationTime: 1659579463
OS2TypoAscent: 0
OS2TypoAOffset: 1
OS2TypoDescent: 0
OS2TypoDOffset: 1
OS2TypoLinegap: 0
OS2WinAscent: 0
OS2WinAOffset: 1
OS2WinDescent: 0
OS2WinDOffset: 1
HheadAscent: 0
HheadAOffset: 1
HheadDescent: 0
HheadDOffset: 1
OS2Vendor: 'PfEd'
MarkAttachClasses: 1
DEI: 91125
Encoding: ISO8859-1
UnicodeInterp: none
NameList: AGL For New Fonts
DisplaySize: -48
AntiAlias: 1
FitToEm: 0
WinInfo: 40 20 6
BeginPrivate: 0
EndPrivate
BeginChars: 256 22

StartChar: c
Encoding: 99 99 0
Width: 1000
VWidth: 1000
Flags: HW
LayerCount: 2
Fore
SplineSet
748.5 593 m 5
 748.5 730 l 5
 889.5 730 l 5
 889.5 593 l 5
 748.5 593 l 5
82.5 365 m 4
 82.5 496.333007812 112.75 591.666992188 173.25 651 c 132
 233.75 710.333007812 323.5 740 442.5 740 c 4
 508.5 740 571 730 630 710 c 5
 630 635 l 5
 569 657 509 668 450 668 c 4
 285 668 202.5 567 202.5 365 c 4
 202.5 255.666992188 223.5 177.833007812 265.5 131.5 c 132
 307.5 85.1669921875 369 62 450 62 c 4
 512 62 574.5 74.6669921875 637.5 100 c 5
 637.5 20 l 5
 578.5 0 513.5 -10 442.5 -10 c 4
 320.5 -10 230 18.6669921875 171 76 c 132
 112 133.333007812 82.5 229.666992188 82.5 365 c 4
EndSplineSet
EndChar

StartChar: e
Encoding: 101 101 1
Width: 1000
VWidth: 1000
Flags: HW
LayerCount: 2
Fore
SplineSet
748.5 593 m 5
 748.5 730 l 5
 889.5 730 l 5
 889.5 593 l 5
 748.5 593 l 5
243 658 m 5
 243 430 l 5
 615 430 l 5
 615 360 l 5
 243 360 l 5
 243 72 l 5
 630 72 l 5
 630 0 l 5
 120 0 l 5
 120 730 l 5
 630 730 l 5
 630 658 l 5
 243 658 l 5
EndSplineSet
EndChar

StartChar: d
Encoding: 100 100 2
Width: 1000
VWidth: 1000
Flags: HW
LayerCount: 2
Fore
SplineSet
748.5 593 m 5
 748.5 730 l 5
 889.5 730 l 5
 889.5 593 l 5
 748.5 593 l 5
574.5 365 m 4
 574.5 477 552.75 555.5 509.25 600.5 c 132
 465.75 645.5 397 668 303 668 c 4
 270 668 242.5 665.333007812 220.5 660 c 5
 220.5 70 l 5
 242.5 64.6669921875 270 62 303 62 c 4
 368 62 419.25 70.1669921875 456.75 86.5 c 132
 494.25 102.833007812 523.25 133.333007812 543.75 178 c 132
 564.25 222.666992188 574.5 285 574.5 365 c 4
697.5 365 m 4
 697.5 227 665.75 130 602.25 74 c 132
 538.75 18 439 -10 303 -10 c 4
 233 -10 164.5 -5 97.5 5 c 5
 97.5 725 l 5
 164.5 735 233 740 303 740 c 4
 440 740 540 711.5 603 654.5 c 132
 666 597.5 697.5 501 697.5 365 c 4
EndSplineSet
EndChar

StartChar: f
Encoding: 102 102 3
Width: 1000
VWidth: 1000
Flags: HW
LayerCount: 2
Fore
SplineSet
748.5 593 m 5
 748.5 730 l 5
 889.5 730 l 5
 889.5 593 l 5
 748.5 593 l 5
258 360 m 5
 258 0 l 5
 135 0 l 5
 135 730 l 5
 630 730 l 5
 630 658 l 5
 258 658 l 5
 258 430 l 5
 615 430 l 5
 615 360 l 5
 258 360 l 5
EndSplineSet
EndChar

StartChar: g
Encoding: 103 103 4
Width: 1000
VWidth: 1000
Flags: HW
LayerCount: 2
Fore
SplineSet
748.5 593 m 5
 748.5 730 l 5
 889.5 730 l 5
 889.5 593 l 5
 748.5 593 l 5
555 85 m 5
 555 360 l 5
 322.5 360 l 5
 322.5 430 l 5
 675 430 l 5
 675 30 l 5
 595 3.3330078125 510 -10 420 -10 c 4
 302 -10 212.5 19.6669921875 151.5 79 c 132
 90.5 138.333007812 60 233.666992188 60 365 c 4
 60 495.666992188 91.75 590.833007812 155.25 650.5 c 132
 218.75 710.166992188 314.5 740 442.5 740 c 4
 501.5 740 566.5 731.666992188 637.5 715 c 5
 637.5 638 l 5
 571.5 658 506.5 668 442.5 668 c 4
 355.5 668 289.5 644 244.5 596 c 132
 199.5 548 177 471 177 365 c 4
 177 163 260.5 62 427.5 62 c 4
 472.5 62 515 69.6669921875 555 85 c 5
EndSplineSet
EndChar

StartChar: C
Encoding: 67 67 5
Width: 1000
VWidth: 1000
Flags: HW
LayerCount: 2
Fore
SplineSet
99 365 m 4
 99 496.333007812 135.299804688 591.666992188 207.900390625 651 c 132
 280.5 710.333007812 388.200195312 740 531 740 c 4
 610.200195312 740 685.200195312 730 756 710 c 5
 756 635 l 5
 682.799804688 657 610.799804688 668 540 668 c 4
 342 668 243 567 243 365 c 4
 243 255.666992188 268.200195312 177.833007812 318.599609375 131.5 c 132
 369 85.1669921875 442.799804688 62 540 62 c 4
 614.400390625 62 689.400390625 74.6669921875 765 100 c 5
 765 20 l 5
 694.200195312 0 616.200195312 -10 531 -10 c 4
 384.599609375 -10 276 18.6669921875 205.200195312 76 c 132
 134.400390625 133.333007812 99 229.666992188 99 365 c 4
EndSplineSet
EndChar

StartChar: D
Encoding: 68 68 6
Width: 1000
VWidth: 1000
Flags: HW
LayerCount: 2
Fore
SplineSet
689.400390625 365 m 4
 689.400390625 477 663.299804688 555.5 611.099609375 600.5 c 132
 558.900390625 645.5 476.400390625 668 363.599609375 668 c 4
 324 668 291 665.333007812 264.599609375 660 c 5
 264.599609375 70 l 5
 291 64.6669921875 324 62 363.599609375 62 c 4
 441.599609375 62 503.099609375 70.1669921875 548.099609375 86.5 c 132
 593.099609375 102.833007812 627.900390625 133.333007812 652.5 178 c 132
 677.099609375 222.666992188 689.400390625 285 689.400390625 365 c 4
837 365 m 4
 837 227 798.900390625 130 722.700195312 74 c 132
 646.5 18 526.799804688 -10 363.599609375 -10 c 4
 279.599609375 -10 197.400390625 -5 117 5 c 5
 117 725 l 5
 197.400390625 735 279.599609375 740 363.599609375 740 c 4
 528 740 648 711.5 723.599609375 654.5 c 132
 799.200195312 597.5 837 501 837 365 c 4
EndSplineSet
EndChar

StartChar: E
Encoding: 69 69 7
Width: 1000
VWidth: 1000
Flags: HW
LayerCount: 2
Fore
SplineSet
291.599609375 658 m 5
 291.599609375 430 l 5
 738 430 l 5
 738 360 l 5
 291.599609375 360 l 5
 291.599609375 72 l 5
 756 72 l 5
 756 0 l 5
 144 0 l 5
 144 730 l 5
 756 730 l 5
 756 658 l 5
 291.599609375 658 l 5
EndSplineSet
EndChar

StartChar: F
Encoding: 70 70 8
Width: 1000
VWidth: 1000
Flags: HW
LayerCount: 2
Fore
SplineSet
309.599609375 360 m 5
 309.599609375 0 l 5
 162 0 l 5
 162 730 l 5
 756 730 l 5
 756 658 l 5
 309.599609375 658 l 5
 309.599609375 430 l 5
 738 430 l 5
 738 360 l 5
 309.599609375 360 l 5
EndSplineSet
EndChar

StartChar: G
Encoding: 71 71 9
Width: 1000
VWidth: 1000
Flags: HW
LayerCount: 2
Fore
SplineSet
666 85 m 5
 666 360 l 5
 387 360 l 5
 387 430 l 5
 810 430 l 5
 810 30 l 5
 714 3.3330078125 612 -10 504 -10 c 4
 362.400390625 -10 255 19.6669921875 181.799804688 79 c 132
 108.599609375 138.333007812 72 233.666992188 72 365 c 4
 72 495.666992188 110.099609375 590.833007812 186.299804688 650.5 c 132
 262.5 710.166992188 377.400390625 740 531 740 c 4
 601.799804688 740 679.799804688 731.666992188 765 715 c 5
 765 638 l 5
 685.799804688 658 607.799804688 668 531 668 c 4
 426.599609375 668 347.400390625 644 293.400390625 596 c 132
 239.400390625 548 212.400390625 471 212.400390625 365 c 4
 212.400390625 163 312.599609375 62 513 62 c 4
 567 62 618 69.6669921875 666 85 c 5
EndSplineSet
EndChar

StartChar: H
Encoding: 72 72 10
Width: 1000
VWidth: 1000
Flags: HW
LayerCount: 2
Fore
SplineSet
748.5 0 m 5
 748.5 137 l 5
 889.5 137 l 5
 889.5 0 l 5
 748.5 0 l 5
258 360 m 5
 258 0 l 5
 135 0 l 5
 135 730 l 5
 630 730 l 5
 630 658 l 5
 258 658 l 5
 258 430 l 5
 615 430 l 5
 615 360 l 5
 258 360 l 5
EndSplineSet
EndChar

StartChar: I
Encoding: 73 73 11
Width: 1000
VWidth: 1000
Flags: HW
LayerCount: 2
Fore
SplineSet
748.5 0 m 5
 748.5 137 l 5
 889.5 137 l 5
 889.5 0 l 5
 748.5 0 l 5
555 85 m 5
 555 360 l 5
 322.5 360 l 5
 322.5 430 l 5
 675 430 l 5
 675 30 l 5
 595 3.3330078125 510 -10 420 -10 c 4
 302 -10 212.5 19.6669921875 151.5 79 c 132
 90.5 138.333007812 60 233.666992188 60 365 c 4
 60 495.666992188 91.75 590.833007812 155.25 650.5 c 132
 218.75 710.166992188 314.5 740 442.5 740 c 4
 501.5 740 566.5 731.666992188 637.5 715 c 5
 637.5 638 l 5
 571.5 658 506.5 668 442.5 668 c 4
 355.5 668 289.5 644 244.5 596 c 132
 199.5 548 177 471 177 365 c 4
 177 163 260.5 62 427.5 62 c 4
 472.5 62 515 69.6669921875 555 85 c 5
EndSplineSet
EndChar

StartChar: A
Encoding: 65 65 12
Width: 1000
VWidth: 1000
Flags: HW
LayerCount: 2
Fore
SplineSet
448.200195312 660 m 5
 444.599609375 660 l 5
 295.200195312 280 l 5
 597.599609375 280 l 5
 448.200195312 660 l 5
626.400390625 210 m 5
 266.400390625 210 l 5
 183.599609375 0 l 5
 36 0 l 5
 360 730 l 5
 540 730 l 5
 864 0 l 5
 709.200195312 0 l 5
 626.400390625 210 l 5
EndSplineSet
EndChar

StartChar: B
Encoding: 66 66 13
Width: 1000
VWidth: 1000
Flags: HW
LayerCount: 2
Fore
SplineSet
282.599609375 430 m 5
 363.599609375 430 l 6
 459.599609375 430 529.5 439.833007812 573.299804688 459.5 c 132
 617.099609375 479.166992188 639 509.333007812 639 550 c 4
 639 588 617.400390625 617.5 574.200195312 638.5 c 132
 531 659.5 469.799804688 670 390.599609375 670 c 4
 347.400390625 670 311.400390625 667.333007812 282.599609375 662 c 5
 282.599609375 430 l 5
282.599609375 360 m 5
 282.599609375 68 l 5
 327 62.6669921875 381 60 444.599609375 60 c 4
 595.799804688 60 671.400390625 113.333007812 671.400390625 220 c 4
 671.400390625 313.333007812 574.799804688 360 381.599609375 360 c 6
 282.599609375 360 l 5
819 210 m 4
 819 63.3330078125 684 -10 414 -10 c 4
 318 -10 225 -5 135 5 c 5
 135 725 l 5
 225 735 318 740 414 740 c 4
 660 740 783 680 783 560 c 4
 783 519.333007812 764.700195312 485 728.099609375 457 c 132
 691.5 429 640.799804688 410.333007812 576 401 c 5
 576 399 l 5
 645.599609375 391.666992188 703.5 370.333007812 749.700195312 335 c 132
 795.900390625 299.666992188 819 258 819 210 c 4
EndSplineSet
EndChar

StartChar: a
Encoding: 97 97 14
Width: 1000
VWidth: 1000
Flags: HW
LayerCount: 2
Fore
SplineSet
748.5 593 m 5
 748.5 730 l 5
 889.5 730 l 5
 889.5 593 l 5
 748.5 593 l 5
373.5 660 m 5
 370.5 660 l 5
 246 280 l 5
 498 280 l 5
 373.5 660 l 5
522 210 m 5
 222 210 l 5
 153 0 l 5
 30 0 l 5
 300 730 l 5
 450 730 l 5
 720 0 l 5
 591 0 l 5
 522 210 l 5
EndSplineSet
EndChar

StartChar: b
Encoding: 98 98 15
Width: 1000
VWidth: 1000
Flags: HW
LayerCount: 2
Fore
SplineSet
748.5 593 m 5
 748.5 730 l 5
 889.5 730 l 5
 889.5 593 l 5
 748.5 593 l 5
235.5 430 m 5
 303 430 l 6
 383 430 441.25 439.833007812 477.75 459.5 c 132
 514.25 479.166992188 532.5 509.333007812 532.5 550 c 4
 532.5 588 514.5 617.5 478.5 638.5 c 132
 442.5 659.5 391.5 670 325.5 670 c 4
 289.5 670 259.5 667.333007812 235.5 662 c 5
 235.5 430 l 5
235.5 360 m 5
 235.5 68 l 5
 272.5 62.6669921875 317.5 60 370.5 60 c 4
 496.5 60 559.5 113.333007812 559.5 220 c 4
 559.5 313.333007812 479 360 318 360 c 6
 235.5 360 l 5
682.5 210 m 4
 682.5 63.3330078125 570 -10 345 -10 c 4
 265 -10 187.5 -5 112.5 5 c 5
 112.5 725 l 5
 187.5 735 265 740 345 740 c 4
 550 740 652.5 680 652.5 560 c 4
 652.5 519.333007812 637.25 485 606.75 457 c 132
 576.25 429 534 410.333007812 480 401 c 5
 480 399 l 5
 538 391.666992188 586.25 370.333007812 624.75 335 c 132
 663.25 299.666992188 682.5 258 682.5 210 c 4
EndSplineSet
EndChar

StartChar: J
Encoding: 74 74 16
Width: 1000
VWidth: 1000
Flags: HW
LayerCount: 2
Fore
SplineSet
748.5 0 m 5
 748.5 137 l 5
 889.5 137 l 5
 889.5 0 l 5
 748.5 0 l 5
373.5 660 m 5
 370.5 660 l 5
 246 280 l 5
 498 280 l 5
 373.5 660 l 5
522 210 m 5
 222 210 l 5
 153 0 l 5
 30 0 l 5
 300 730 l 5
 450 730 l 5
 720 0 l 5
 591 0 l 5
 522 210 l 5
EndSplineSet
EndChar

StartChar: K
Encoding: 75 75 17
Width: 1000
VWidth: 1000
Flags: HW
LayerCount: 2
Fore
SplineSet
748.5 0 m 5
 748.5 137 l 5
 889.5 137 l 5
 889.5 0 l 5
 748.5 0 l 5
235.5 430 m 5
 303 430 l 6
 383 430 441.25 439.833007812 477.75 459.5 c 132
 514.25 479.166992188 532.5 509.333007812 532.5 550 c 4
 532.5 588 514.5 617.5 478.5 638.5 c 132
 442.5 659.5 391.5 670 325.5 670 c 4
 289.5 670 259.5 667.333007812 235.5 662 c 5
 235.5 430 l 5
235.5 360 m 5
 235.5 68 l 5
 272.5 62.6669921875 317.5 60 370.5 60 c 4
 496.5 60 559.5 113.333007812 559.5 220 c 4
 559.5 313.333007812 479 360 318 360 c 6
 235.5 360 l 5
682.5 210 m 4
 682.5 63.3330078125 570 -10 345 -10 c 4
 265 -10 187.5 -5 112.5 5 c 5
 112.5 725 l 5
 187.5 735 265 740 345 740 c 4
 550 740 652.5 680 652.5 560 c 4
 652.5 519.333007812 637.25 485 606.75 457 c 132
 576.25 429 534 410.333007812 480 401 c 5
 480 399 l 5
 538 391.666992188 586.25 370.333007812 624.75 335 c 132
 663.25 299.666992188 682.5 258 682.5 210 c 4
EndSplineSet
EndChar

StartChar: three
Encoding: 51 51 18
Width: 1000
VWidth: 1000
Flags: HW
LayerCount: 2
Fore
SplineSet
748.5 306 m 5
 748.5 443 l 5
 889.5 443 l 5
 889.5 306 l 5
 748.5 306 l 5
748.5 593 m 5
 748.5 730 l 5
 889.5 730 l 5
 889.5 593 l 5
 748.5 593 l 5
243 658 m 1
 243 430 l 1
 615 430 l 1
 615 360 l 1
 243 360 l 1
 243 72 l 1
 630 72 l 1
 630 0 l 1
 120 0 l 1
 120 730 l 1
 630 730 l 1
 630 658 l 1
 243 658 l 1
EndSplineSet
EndChar

StartChar: two
Encoding: 50 50 19
Width: 1000
VWidth: 1000
Flags: HW
LayerCount: 2
Fore
SplineSet
748.5 306 m 5
 748.5 443 l 5
 889.5 443 l 5
 889.5 306 l 5
 748.5 306 l 5
748.5 593 m 5
 748.5 730 l 5
 889.5 730 l 5
 889.5 593 l 5
 748.5 593 l 5
574.5 365 m 0
 574.5 477 552.75 555.5 509.25 600.5 c 128
 465.75 645.5 397 668 303 668 c 0
 270 668 242.5 665.333007812 220.5 660 c 1
 220.5 70 l 1
 242.5 64.6669921875 270 62 303 62 c 0
 368 62 419.25 70.1669921875 456.75 86.5 c 128
 494.25 102.833007812 523.25 133.333007812 543.75 178 c 128
 564.25 222.666992188 574.5 285 574.5 365 c 0
697.5 365 m 0
 697.5 227 665.75 130 602.25 74 c 128
 538.75 18 439 -10 303 -10 c 0
 233 -10 164.5 -5 97.5 5 c 1
 97.5 725 l 1
 164.5 735 233 740 303 740 c 0
 440 740 540 711.5 603 654.5 c 128
 666 597.5 697.5 501 697.5 365 c 0
EndSplineSet
EndChar

StartChar: one
Encoding: 49 49 21
Width: 1000
VWidth: 1000
Flags: HW
LayerCount: 2
Fore
SplineSet
748.5 306 m 5
 748.5 443 l 5
 889.5 443 l 5
 889.5 306 l 5
 748.5 306 l 5
748.5 593 m 5
 748.5 730 l 5
 889.5 730 l 5
 889.5 593 l 5
 748.5 593 l 5
82.5 365 m 0
 82.5 496.333007812 112.75 591.666992188 173.25 651 c 128
 233.75 710.333007812 323.5 740 442.5 740 c 0
 508.5 740 571 730 630 710 c 1
 630 635 l 1
 569 657 509 668 450 668 c 0
 285 668 202.5 567 202.5 365 c 0
 202.5 255.666992188 223.5 177.833007812 265.5 131.5 c 128
 307.5 85.1669921875 369 62 450 62 c 0
 512 62 574.5 74.6669921875 637.5 100 c 1
 637.5 20 l 1
 578.5 0 513.5 -10 442.5 -10 c 0
 320.5 -10 230 18.6669921875 171 76 c 128
 112 133.333007812 82.5 229.666992188 82.5 365 c 0
EndSplineSet
EndChar
